<mxfile host="app.diagrams.net" modified="2023-07-18T12:06:36.859Z" agent="Mozilla/5.0 (Windows NT 6.1; Win64; x64) AppleWebKit/537.36 (KHTML, like Gecko) Chrome/114.0.0.0 YaBrowser/23.7.0.2534 Yowser/2.5 Safari/537.36" version="21.6.2" etag="bArgCGy-aFQiQBm9yzH0" type="github">
  <diagram name="Страница 1" id="vvLL60QzbY_t5NPWJt01">
    <mxGraphModel>
      <root>
        <mxCell id="0" />
        <mxCell id="1" parent="0" />
      </root>
    </mxGraphModel>
  </diagram>
</mxfile>
